{
  "accessors": [
    {
      "name": "CHEN_WU_XIAN_Wrapped_Wrapped_Part_1_of_皮肤_打印区域（不带校准盒_打印用）_7_001-Mesh_0_positions",
      "componentType": 5126,
      "count": 29614,
      "min": [
        -187.26719665527344,
        -1598.080810546875,
        -106.78990173339844
      ],
      "max": [
        -0.5407999753952026,
        -1137.265625,
        132.45309448242188
      ],
      "type": "VEC3",
      "bufferView": 0,
      "byteOffset": 0
    },
    {
      "name": "CHEN_WU_XIAN_Wrapped_Wrapped_Part_1_of_皮肤_打印区域（不带校准盒_打印用）_7_001-Mesh_0_indices",
      "componentType": 5123,
      "count": 177720,
      "min": [
        0
      ],
      "max": [
        29613
      ],
      "type": "SCALAR",
      "bufferView": 1,
      "byteOffset": 0
    }
  ],
  "asset": {
    "generator": "obj2gltf",
    "version": "2.0"
  },
  "buffers": [
    {
      "name": "SKIN",
      "byteLength": 710808,
      "uri": "data:application/octet-stream;base64,"
    }
  ],
  "bufferViews": [
    {
      "name": "bufferView_0",
      "buffer": 0,
      "byteLength": 355368,
      "byteOffset": 0,
      "byteStride": 12,
      "target": 34962
    },
    {
      "name": "bufferView_1",
      "buffer": 0,
      "byteLength": 355440,
      "byteOffset": 355368,
      "target": 34963
    }
  ],
  "materials": [
    {
      "name": "default",
      "pbrMetallicRoughness": {
        "baseColorFactor": [
          1,
          1,
          1,
          1
        ],
        "metallicFactor": 0,
        "roughnessFactor": 1
      },
      "emissiveFactor": [
        0,
        0,
        0
      ],
      "alphaMode": "OPAQUE",
      "doubleSided": false
    }
  ],
  "meshes": [
    {
      "name": "CHEN_WU_XIAN_Wrapped_Wrapped_Part_1_of_皮肤_打印区域（不带校准盒_打印用）_7_001-Mesh",
      "primitives": [
        {
          "attributes": {
            "POSITION": 0
          },
          "indices": 1,
          "material": 0,
          "mode": 4
        }
      ]
    }
  ],
  "nodes": [
    {
      "name": "CHEN_WU_XIAN_Wrapped_Wrapped_Part_1_of_皮肤_打印区域（不带校准盒_打印用）_7_001",
      "mesh": 0
    }
  ],
  "scene": 0,
  "scenes": [
    {
      "nodes": [
        0
      ]
    }
  ]
}
